<svg xmlns="http://www.w3.org/2000/svg" width="64pt" height="64pt" style="isolation:isolate" viewBox="0 0 64 64" id="desktop-computer">
  <path fill-rule="evenodd" d="M16 42v6H9.75c-.53 0-1.04.21-1.41.59-.38.37-.59.88-.59 1.41 0 .53.21 1.04.59 1.41.37.38.88.59 1.41.59h16.5c.53 0 1.04-.21 1.41-.59.38-.37.59-.88.59-1.41 0-.53-.21-1.04-.59-1.41-.37-.38-.88-.59-1.41-.59H20v-6h-4ZM0 40V16c0-1.06.42-2.08 1.17-2.83S2.94 12 4 12h28c1.06 0 2.08.42 2.83 1.17S36 14.94 36 16v24H0Zm58-20c.27 0 .52.11.71.29.18.19.29.44.29.71 0 .27-.11.52-.29.71-.19.18-.44.29-.71.29H46c-.27 0-.52-.11-.71-.29-.18-.19-.29-.44-.29-.71 0-.27.11-.52.29-.71.19-.18.44-.29.71-.29h12Zm-13.97-8h15.94c1.07 0 2.09.42 2.85 1.18.76.76 1.18 1.78 1.18 2.85V52H40V16.03c0-1.07.42-2.09 1.18-2.85.76-.76 1.78-1.18 2.85-1.18Z"></path>
</svg>
